<mxfile host="app.diagrams.net" agent="Mozilla/5.0 (Windows NT 10.0; Win64; x64) AppleWebKit/537.36 (KHTML, like Gecko) Chrome/137.0.0.0 Safari/537.36 Edg/137.0.0.0" version="27.1.1">
  <diagram name="第 1 页" id="UWFheWzikszE7oYHMhCZ">
    <mxGraphModel dx="1378" dy="786" grid="1" gridSize="10" guides="1" tooltips="1" connect="1" arrows="1" fold="1" page="1" pageScale="1" pageWidth="827" pageHeight="1169" math="0" shadow="0">
      <root>
        <mxCell id="0" />
        <mxCell id="1" parent="0" />
        <mxCell id="BYaNPzdMUgekA2S-c_NO-79" value="" style="rounded=0;whiteSpace=wrap;html=1;dashed=1;" vertex="1" parent="1">
          <mxGeometry x="620" y="60" width="120" height="660" as="geometry" />
        </mxCell>
        <mxCell id="BYaNPzdMUgekA2S-c_NO-77" value="" style="rounded=0;whiteSpace=wrap;html=1;dashed=1;" vertex="1" parent="1">
          <mxGeometry x="230" y="60" width="360" height="660" as="geometry" />
        </mxCell>
        <mxCell id="BYaNPzdMUgekA2S-c_NO-74" value="" style="rounded=0;whiteSpace=wrap;html=1;dashed=1;" vertex="1" parent="1">
          <mxGeometry x="110" y="60" width="110" height="660" as="geometry" />
        </mxCell>
        <mxCell id="BYaNPzdMUgekA2S-c_NO-29" style="edgeStyle=orthogonalEdgeStyle;rounded=0;orthogonalLoop=1;jettySize=auto;html=1;entryX=0.5;entryY=0;entryDx=0;entryDy=0;" edge="1" parent="1" source="BYaNPzdMUgekA2S-c_NO-1" target="BYaNPzdMUgekA2S-c_NO-3">
          <mxGeometry relative="1" as="geometry" />
        </mxCell>
        <mxCell id="BYaNPzdMUgekA2S-c_NO-1" value="Conv" style="rounded=1;whiteSpace=wrap;html=1;fillColor=#60a917;fontColor=#ffffff;strokeColor=#2D7600;" vertex="1" parent="1">
          <mxGeometry x="130" y="90" width="70" height="40" as="geometry" />
        </mxCell>
        <mxCell id="BYaNPzdMUgekA2S-c_NO-30" style="edgeStyle=orthogonalEdgeStyle;rounded=0;orthogonalLoop=1;jettySize=auto;html=1;entryX=0.5;entryY=0;entryDx=0;entryDy=0;" edge="1" parent="1" source="BYaNPzdMUgekA2S-c_NO-3" target="BYaNPzdMUgekA2S-c_NO-11">
          <mxGeometry relative="1" as="geometry" />
        </mxCell>
        <mxCell id="BYaNPzdMUgekA2S-c_NO-3" value="Conv" style="rounded=1;whiteSpace=wrap;html=1;fillColor=#60a917;fontColor=#ffffff;strokeColor=#2D7600;" vertex="1" parent="1">
          <mxGeometry x="130" y="150" width="70" height="40" as="geometry" />
        </mxCell>
        <mxCell id="BYaNPzdMUgekA2S-c_NO-64" style="edgeStyle=orthogonalEdgeStyle;rounded=0;orthogonalLoop=1;jettySize=auto;html=1;" edge="1" parent="1" source="BYaNPzdMUgekA2S-c_NO-4" target="BYaNPzdMUgekA2S-c_NO-20">
          <mxGeometry relative="1" as="geometry" />
        </mxCell>
        <mxCell id="BYaNPzdMUgekA2S-c_NO-4" value="Conv" style="rounded=1;whiteSpace=wrap;html=1;fillColor=#60a917;fontColor=#ffffff;strokeColor=#2D7600;" vertex="1" parent="1">
          <mxGeometry x="500" y="510" width="70" height="40" as="geometry" />
        </mxCell>
        <mxCell id="BYaNPzdMUgekA2S-c_NO-33" style="edgeStyle=orthogonalEdgeStyle;rounded=0;orthogonalLoop=1;jettySize=auto;html=1;entryX=0.5;entryY=0;entryDx=0;entryDy=0;" edge="1" parent="1" source="BYaNPzdMUgekA2S-c_NO-5" target="BYaNPzdMUgekA2S-c_NO-15">
          <mxGeometry relative="1" as="geometry" />
        </mxCell>
        <mxCell id="BYaNPzdMUgekA2S-c_NO-5" value="Conv" style="rounded=1;whiteSpace=wrap;html=1;fillColor=#60a917;fontColor=#ffffff;strokeColor=#2D7600;" vertex="1" parent="1">
          <mxGeometry x="130" y="270" width="70" height="40" as="geometry" />
        </mxCell>
        <mxCell id="BYaNPzdMUgekA2S-c_NO-43" style="edgeStyle=orthogonalEdgeStyle;rounded=0;orthogonalLoop=1;jettySize=auto;html=1;entryX=0.5;entryY=1;entryDx=0;entryDy=0;" edge="1" parent="1" source="BYaNPzdMUgekA2S-c_NO-6" target="BYaNPzdMUgekA2S-c_NO-25">
          <mxGeometry relative="1" as="geometry" />
        </mxCell>
        <mxCell id="BYaNPzdMUgekA2S-c_NO-60" style="edgeStyle=orthogonalEdgeStyle;rounded=0;orthogonalLoop=1;jettySize=auto;html=1;entryX=0;entryY=0.5;entryDx=0;entryDy=0;" edge="1" parent="1" source="BYaNPzdMUgekA2S-c_NO-6" target="BYaNPzdMUgekA2S-c_NO-20">
          <mxGeometry relative="1" as="geometry" />
        </mxCell>
        <mxCell id="BYaNPzdMUgekA2S-c_NO-6" value="Conv" style="rounded=1;whiteSpace=wrap;html=1;fillColor=#60a917;fontColor=#ffffff;strokeColor=#2D7600;" vertex="1" parent="1">
          <mxGeometry x="260" y="570" width="70" height="40" as="geometry" />
        </mxCell>
        <mxCell id="BYaNPzdMUgekA2S-c_NO-35" style="edgeStyle=orthogonalEdgeStyle;rounded=0;orthogonalLoop=1;jettySize=auto;html=1;" edge="1" parent="1" source="BYaNPzdMUgekA2S-c_NO-7" target="BYaNPzdMUgekA2S-c_NO-16">
          <mxGeometry relative="1" as="geometry" />
        </mxCell>
        <mxCell id="BYaNPzdMUgekA2S-c_NO-7" value="Conv" style="rounded=1;whiteSpace=wrap;html=1;fillColor=#60a917;fontColor=#ffffff;strokeColor=#2D7600;" vertex="1" parent="1">
          <mxGeometry x="130" y="390" width="70" height="40" as="geometry" />
        </mxCell>
        <mxCell id="BYaNPzdMUgekA2S-c_NO-49" style="edgeStyle=orthogonalEdgeStyle;rounded=0;orthogonalLoop=1;jettySize=auto;html=1;entryX=0.5;entryY=1;entryDx=0;entryDy=0;" edge="1" parent="1" source="BYaNPzdMUgekA2S-c_NO-8" target="BYaNPzdMUgekA2S-c_NO-24">
          <mxGeometry relative="1" as="geometry" />
        </mxCell>
        <mxCell id="BYaNPzdMUgekA2S-c_NO-54" style="edgeStyle=orthogonalEdgeStyle;rounded=0;orthogonalLoop=1;jettySize=auto;html=1;entryX=0;entryY=0.5;entryDx=0;entryDy=0;" edge="1" parent="1" source="BYaNPzdMUgekA2S-c_NO-8" target="BYaNPzdMUgekA2S-c_NO-19">
          <mxGeometry relative="1" as="geometry" />
        </mxCell>
        <mxCell id="BYaNPzdMUgekA2S-c_NO-8" value="Conv" style="rounded=1;whiteSpace=wrap;html=1;fillColor=#60a917;fontColor=#ffffff;strokeColor=#2D7600;" vertex="1" parent="1">
          <mxGeometry x="379" y="390" width="70" height="40" as="geometry" />
        </mxCell>
        <mxCell id="BYaNPzdMUgekA2S-c_NO-38" style="edgeStyle=orthogonalEdgeStyle;rounded=0;orthogonalLoop=1;jettySize=auto;html=1;entryX=0.5;entryY=0;entryDx=0;entryDy=0;" edge="1" parent="1" source="BYaNPzdMUgekA2S-c_NO-9" target="BYaNPzdMUgekA2S-c_NO-18">
          <mxGeometry relative="1" as="geometry" />
        </mxCell>
        <mxCell id="BYaNPzdMUgekA2S-c_NO-9" value="Conv" style="rounded=1;whiteSpace=wrap;html=1;fillColor=#60a917;fontColor=#ffffff;strokeColor=#2D7600;" vertex="1" parent="1">
          <mxGeometry x="130" y="510" width="70" height="40" as="geometry" />
        </mxCell>
        <mxCell id="BYaNPzdMUgekA2S-c_NO-56" style="edgeStyle=orthogonalEdgeStyle;rounded=0;orthogonalLoop=1;jettySize=auto;html=1;entryX=0.5;entryY=0;entryDx=0;entryDy=0;" edge="1" parent="1" source="BYaNPzdMUgekA2S-c_NO-10" target="BYaNPzdMUgekA2S-c_NO-19">
          <mxGeometry relative="1" as="geometry" />
        </mxCell>
        <mxCell id="BYaNPzdMUgekA2S-c_NO-10" value="Conv" style="rounded=1;whiteSpace=wrap;html=1;fillColor=#60a917;fontColor=#ffffff;strokeColor=#2D7600;" vertex="1" parent="1">
          <mxGeometry x="500" y="330" width="70" height="40" as="geometry" />
        </mxCell>
        <mxCell id="BYaNPzdMUgekA2S-c_NO-32" style="edgeStyle=orthogonalEdgeStyle;rounded=0;orthogonalLoop=1;jettySize=auto;html=1;entryX=0.5;entryY=0;entryDx=0;entryDy=0;" edge="1" parent="1" source="BYaNPzdMUgekA2S-c_NO-11" target="BYaNPzdMUgekA2S-c_NO-5">
          <mxGeometry relative="1" as="geometry" />
        </mxCell>
        <mxCell id="BYaNPzdMUgekA2S-c_NO-11" value="C3" style="rounded=1;whiteSpace=wrap;html=1;fillColor=#1ba1e2;fontColor=#ffffff;strokeColor=#006EAF;" vertex="1" parent="1">
          <mxGeometry x="130" y="210" width="70" height="40" as="geometry" />
        </mxCell>
        <mxCell id="BYaNPzdMUgekA2S-c_NO-53" style="edgeStyle=orthogonalEdgeStyle;rounded=0;orthogonalLoop=1;jettySize=auto;html=1;" edge="1" parent="1" source="BYaNPzdMUgekA2S-c_NO-12" target="BYaNPzdMUgekA2S-c_NO-10">
          <mxGeometry relative="1" as="geometry" />
        </mxCell>
        <mxCell id="BYaNPzdMUgekA2S-c_NO-69" style="edgeStyle=orthogonalEdgeStyle;rounded=0;orthogonalLoop=1;jettySize=auto;html=1;" edge="1" parent="1" source="BYaNPzdMUgekA2S-c_NO-12" target="BYaNPzdMUgekA2S-c_NO-26">
          <mxGeometry relative="1" as="geometry" />
        </mxCell>
        <mxCell id="BYaNPzdMUgekA2S-c_NO-12" value="C3" style="rounded=1;whiteSpace=wrap;html=1;fillColor=#1ba1e2;fontColor=#ffffff;strokeColor=#006EAF;" vertex="1" parent="1">
          <mxGeometry x="500" y="270" width="70" height="40" as="geometry" />
        </mxCell>
        <mxCell id="BYaNPzdMUgekA2S-c_NO-62" style="edgeStyle=orthogonalEdgeStyle;rounded=0;orthogonalLoop=1;jettySize=auto;html=1;" edge="1" parent="1" source="BYaNPzdMUgekA2S-c_NO-13" target="BYaNPzdMUgekA2S-c_NO-4">
          <mxGeometry relative="1" as="geometry" />
        </mxCell>
        <mxCell id="BYaNPzdMUgekA2S-c_NO-70" style="edgeStyle=orthogonalEdgeStyle;rounded=0;orthogonalLoop=1;jettySize=auto;html=1;entryX=0;entryY=0.5;entryDx=0;entryDy=0;" edge="1" parent="1" source="BYaNPzdMUgekA2S-c_NO-13" target="BYaNPzdMUgekA2S-c_NO-67">
          <mxGeometry relative="1" as="geometry" />
        </mxCell>
        <mxCell id="BYaNPzdMUgekA2S-c_NO-13" value="C3" style="rounded=1;whiteSpace=wrap;html=1;fillColor=#1ba1e2;fontColor=#ffffff;strokeColor=#006EAF;" vertex="1" parent="1">
          <mxGeometry x="500" y="450" width="70" height="40" as="geometry" />
        </mxCell>
        <mxCell id="BYaNPzdMUgekA2S-c_NO-48" style="edgeStyle=orthogonalEdgeStyle;rounded=0;orthogonalLoop=1;jettySize=auto;html=1;entryX=0.5;entryY=1;entryDx=0;entryDy=0;" edge="1" parent="1" source="BYaNPzdMUgekA2S-c_NO-14" target="BYaNPzdMUgekA2S-c_NO-8">
          <mxGeometry relative="1" as="geometry" />
        </mxCell>
        <mxCell id="BYaNPzdMUgekA2S-c_NO-14" value="C3" style="rounded=1;whiteSpace=wrap;html=1;fillColor=#1ba1e2;fontColor=#ffffff;strokeColor=#006EAF;" vertex="1" parent="1">
          <mxGeometry x="379" y="450" width="70" height="40" as="geometry" />
        </mxCell>
        <mxCell id="BYaNPzdMUgekA2S-c_NO-34" style="edgeStyle=orthogonalEdgeStyle;rounded=0;orthogonalLoop=1;jettySize=auto;html=1;entryX=0.5;entryY=0;entryDx=0;entryDy=0;" edge="1" parent="1" source="BYaNPzdMUgekA2S-c_NO-15" target="BYaNPzdMUgekA2S-c_NO-7">
          <mxGeometry relative="1" as="geometry" />
        </mxCell>
        <mxCell id="BYaNPzdMUgekA2S-c_NO-51" style="edgeStyle=orthogonalEdgeStyle;rounded=0;orthogonalLoop=1;jettySize=auto;html=1;entryX=0;entryY=0.5;entryDx=0;entryDy=0;" edge="1" parent="1" source="BYaNPzdMUgekA2S-c_NO-15" target="BYaNPzdMUgekA2S-c_NO-21">
          <mxGeometry relative="1" as="geometry" />
        </mxCell>
        <mxCell id="BYaNPzdMUgekA2S-c_NO-15" value="C3" style="rounded=1;whiteSpace=wrap;html=1;fillColor=#1ba1e2;fontColor=#ffffff;strokeColor=#006EAF;" vertex="1" parent="1">
          <mxGeometry x="130" y="330" width="70" height="40" as="geometry" />
        </mxCell>
        <mxCell id="BYaNPzdMUgekA2S-c_NO-37" style="edgeStyle=orthogonalEdgeStyle;rounded=0;orthogonalLoop=1;jettySize=auto;html=1;entryX=0.5;entryY=0;entryDx=0;entryDy=0;" edge="1" parent="1" source="BYaNPzdMUgekA2S-c_NO-16" target="BYaNPzdMUgekA2S-c_NO-9">
          <mxGeometry relative="1" as="geometry" />
        </mxCell>
        <mxCell id="BYaNPzdMUgekA2S-c_NO-46" style="edgeStyle=orthogonalEdgeStyle;rounded=0;orthogonalLoop=1;jettySize=auto;html=1;" edge="1" parent="1" source="BYaNPzdMUgekA2S-c_NO-16" target="BYaNPzdMUgekA2S-c_NO-22">
          <mxGeometry relative="1" as="geometry" />
        </mxCell>
        <mxCell id="BYaNPzdMUgekA2S-c_NO-16" value="C3" style="rounded=1;whiteSpace=wrap;html=1;fillColor=#1ba1e2;fontColor=#ffffff;strokeColor=#006EAF;" vertex="1" parent="1">
          <mxGeometry x="130" y="450" width="70" height="40" as="geometry" />
        </mxCell>
        <mxCell id="BYaNPzdMUgekA2S-c_NO-71" style="edgeStyle=orthogonalEdgeStyle;rounded=0;orthogonalLoop=1;jettySize=auto;html=1;entryX=0;entryY=0.5;entryDx=0;entryDy=0;" edge="1" parent="1" source="BYaNPzdMUgekA2S-c_NO-17" target="BYaNPzdMUgekA2S-c_NO-68">
          <mxGeometry relative="1" as="geometry" />
        </mxCell>
        <mxCell id="BYaNPzdMUgekA2S-c_NO-17" value="C3" style="rounded=1;whiteSpace=wrap;html=1;fillColor=#1ba1e2;fontColor=#ffffff;strokeColor=#006EAF;" vertex="1" parent="1">
          <mxGeometry x="500" y="630" width="70" height="40" as="geometry" />
        </mxCell>
        <mxCell id="BYaNPzdMUgekA2S-c_NO-40" style="edgeStyle=orthogonalEdgeStyle;rounded=0;orthogonalLoop=1;jettySize=auto;html=1;entryX=0.5;entryY=0;entryDx=0;entryDy=0;" edge="1" parent="1" source="BYaNPzdMUgekA2S-c_NO-18" target="BYaNPzdMUgekA2S-c_NO-23">
          <mxGeometry relative="1" as="geometry" />
        </mxCell>
        <mxCell id="BYaNPzdMUgekA2S-c_NO-18" value="C3" style="rounded=1;whiteSpace=wrap;html=1;fillColor=#1ba1e2;fontColor=#ffffff;strokeColor=#006EAF;" vertex="1" parent="1">
          <mxGeometry x="130" y="570" width="70" height="40" as="geometry" />
        </mxCell>
        <mxCell id="BYaNPzdMUgekA2S-c_NO-58" style="edgeStyle=orthogonalEdgeStyle;rounded=0;orthogonalLoop=1;jettySize=auto;html=1;entryX=0.5;entryY=0;entryDx=0;entryDy=0;" edge="1" parent="1" source="BYaNPzdMUgekA2S-c_NO-19" target="BYaNPzdMUgekA2S-c_NO-13">
          <mxGeometry relative="1" as="geometry" />
        </mxCell>
        <mxCell id="BYaNPzdMUgekA2S-c_NO-19" value="Concat" style="rounded=1;whiteSpace=wrap;html=1;fillColor=#fa6800;fontColor=#000000;strokeColor=#C73500;" vertex="1" parent="1">
          <mxGeometry x="500" y="390" width="70" height="40" as="geometry" />
        </mxCell>
        <mxCell id="BYaNPzdMUgekA2S-c_NO-66" style="edgeStyle=orthogonalEdgeStyle;rounded=0;orthogonalLoop=1;jettySize=auto;html=1;entryX=0.5;entryY=0;entryDx=0;entryDy=0;" edge="1" parent="1" source="BYaNPzdMUgekA2S-c_NO-20" target="BYaNPzdMUgekA2S-c_NO-17">
          <mxGeometry relative="1" as="geometry" />
        </mxCell>
        <mxCell id="BYaNPzdMUgekA2S-c_NO-20" value="Concat" style="rounded=1;whiteSpace=wrap;html=1;fillColor=#fa6800;fontColor=#000000;strokeColor=#C73500;" vertex="1" parent="1">
          <mxGeometry x="500" y="570" width="70" height="40" as="geometry" />
        </mxCell>
        <mxCell id="BYaNPzdMUgekA2S-c_NO-52" style="edgeStyle=orthogonalEdgeStyle;rounded=0;orthogonalLoop=1;jettySize=auto;html=1;" edge="1" parent="1" source="BYaNPzdMUgekA2S-c_NO-21" target="BYaNPzdMUgekA2S-c_NO-12">
          <mxGeometry relative="1" as="geometry" />
        </mxCell>
        <mxCell id="BYaNPzdMUgekA2S-c_NO-21" value="Concat" style="rounded=1;whiteSpace=wrap;html=1;fillColor=#fa6800;fontColor=#000000;strokeColor=#C73500;" vertex="1" parent="1">
          <mxGeometry x="379" y="270" width="70" height="40" as="geometry" />
        </mxCell>
        <mxCell id="BYaNPzdMUgekA2S-c_NO-47" style="edgeStyle=orthogonalEdgeStyle;rounded=0;orthogonalLoop=1;jettySize=auto;html=1;" edge="1" parent="1" source="BYaNPzdMUgekA2S-c_NO-22" target="BYaNPzdMUgekA2S-c_NO-14">
          <mxGeometry relative="1" as="geometry" />
        </mxCell>
        <mxCell id="BYaNPzdMUgekA2S-c_NO-22" value="Concat" style="rounded=1;whiteSpace=wrap;html=1;fillColor=#fa6800;fontColor=#000000;strokeColor=#C73500;" vertex="1" parent="1">
          <mxGeometry x="260" y="450" width="70" height="40" as="geometry" />
        </mxCell>
        <mxCell id="BYaNPzdMUgekA2S-c_NO-23" value="SPPF" style="rounded=1;whiteSpace=wrap;html=1;fillColor=#a20025;fontColor=#ffffff;strokeColor=#6F0000;" vertex="1" parent="1">
          <mxGeometry x="130" y="630" width="70" height="40" as="geometry" />
        </mxCell>
        <mxCell id="BYaNPzdMUgekA2S-c_NO-50" style="edgeStyle=orthogonalEdgeStyle;rounded=0;orthogonalLoop=1;jettySize=auto;html=1;entryX=0.5;entryY=1;entryDx=0;entryDy=0;" edge="1" parent="1" source="BYaNPzdMUgekA2S-c_NO-24" target="BYaNPzdMUgekA2S-c_NO-21">
          <mxGeometry relative="1" as="geometry" />
        </mxCell>
        <mxCell id="BYaNPzdMUgekA2S-c_NO-24" value="Upsample" style="rounded=1;whiteSpace=wrap;html=1;fillColor=#6a00ff;fontColor=#ffffff;strokeColor=#3700CC;" vertex="1" parent="1">
          <mxGeometry x="379" y="330" width="70" height="40" as="geometry" />
        </mxCell>
        <mxCell id="BYaNPzdMUgekA2S-c_NO-45" style="edgeStyle=orthogonalEdgeStyle;rounded=0;orthogonalLoop=1;jettySize=auto;html=1;entryX=0.5;entryY=1;entryDx=0;entryDy=0;" edge="1" parent="1" source="BYaNPzdMUgekA2S-c_NO-25" target="BYaNPzdMUgekA2S-c_NO-22">
          <mxGeometry relative="1" as="geometry" />
        </mxCell>
        <mxCell id="BYaNPzdMUgekA2S-c_NO-25" value="Upsample" style="rounded=1;whiteSpace=wrap;html=1;fillColor=#6a00ff;fontColor=#ffffff;strokeColor=#3700CC;" vertex="1" parent="1">
          <mxGeometry x="260" y="510" width="70" height="40" as="geometry" />
        </mxCell>
        <mxCell id="BYaNPzdMUgekA2S-c_NO-26" value="Detect" style="rounded=1;whiteSpace=wrap;html=1;fillColor=#d80073;fontColor=#ffffff;strokeColor=#A50040;" vertex="1" parent="1">
          <mxGeometry x="650" y="270" width="70" height="40" as="geometry" />
        </mxCell>
        <mxCell id="BYaNPzdMUgekA2S-c_NO-67" value="Detect" style="rounded=1;whiteSpace=wrap;html=1;fillColor=#d80073;fontColor=#ffffff;strokeColor=#A50040;" vertex="1" parent="1">
          <mxGeometry x="650" y="450" width="70" height="40" as="geometry" />
        </mxCell>
        <mxCell id="BYaNPzdMUgekA2S-c_NO-68" value="Detect" style="rounded=1;whiteSpace=wrap;html=1;fillColor=#d80073;fontColor=#ffffff;strokeColor=#A50040;" vertex="1" parent="1">
          <mxGeometry x="650" y="630" width="70" height="40" as="geometry" />
        </mxCell>
        <mxCell id="BYaNPzdMUgekA2S-c_NO-81" value="&lt;font style=&quot;color: rgb(255, 0, 0);&quot;&gt;Backbone&lt;/font&gt;" style="text;strokeColor=none;align=center;fillColor=none;html=1;verticalAlign=middle;whiteSpace=wrap;rounded=0;" vertex="1" parent="1">
          <mxGeometry x="135" y="680" width="60" height="30" as="geometry" />
        </mxCell>
        <mxCell id="BYaNPzdMUgekA2S-c_NO-82" value="&lt;font style=&quot;color: rgb(255, 0, 0);&quot;&gt;Neck&lt;/font&gt;" style="text;strokeColor=none;align=center;fillColor=none;html=1;verticalAlign=middle;whiteSpace=wrap;rounded=0;" vertex="1" parent="1">
          <mxGeometry x="379" y="680" width="60" height="30" as="geometry" />
        </mxCell>
        <mxCell id="BYaNPzdMUgekA2S-c_NO-83" value="&lt;font style=&quot;color: rgb(255, 0, 0);&quot;&gt;Head&lt;/font&gt;" style="text;strokeColor=none;align=center;fillColor=none;html=1;verticalAlign=middle;whiteSpace=wrap;rounded=0;" vertex="1" parent="1">
          <mxGeometry x="655" y="680" width="60" height="30" as="geometry" />
        </mxCell>
        <mxCell id="BYaNPzdMUgekA2S-c_NO-85" style="edgeStyle=orthogonalEdgeStyle;rounded=0;orthogonalLoop=1;jettySize=auto;html=1;" edge="1" parent="1" source="BYaNPzdMUgekA2S-c_NO-84" target="BYaNPzdMUgekA2S-c_NO-1">
          <mxGeometry relative="1" as="geometry" />
        </mxCell>
        <mxCell id="BYaNPzdMUgekA2S-c_NO-84" value="Input" style="rounded=1;whiteSpace=wrap;html=1;" vertex="1" parent="1">
          <mxGeometry x="10" y="90" width="80" height="40" as="geometry" />
        </mxCell>
      </root>
    </mxGraphModel>
  </diagram>
</mxfile>
